<svg width="1512" height="276" viewBox="0 0 1512 276" fill="none" xmlns="http://www.w3.org/2000/svg">
<path d="M0 -1H1512V276H0V-1Z" fill="#C4C4C4"/>
<path d="M0 -1H1512V276H0V-1Z"/>
<path d="M0 0H1512V276H0V0Z" fill="black" fill-opacity="0.55"/>
<path d="M1261.04 206.1C1262.52 206.1 1263.81 206.387 1264.92 206.96C1266.04 207.52 1266.9 208.333 1267.5 209.4C1268.11 210.453 1268.42 211.687 1268.42 213.1C1268.42 214.513 1268.11 215.74 1267.5 216.78C1266.9 217.82 1266.04 218.62 1264.92 219.18C1263.81 219.727 1262.52 220 1261.04 220H1256.5V206.1H1261.04ZM1261.04 218.14C1262.67 218.14 1263.91 217.7 1264.78 216.82C1265.65 215.94 1266.08 214.7 1266.08 213.1C1266.08 211.487 1265.65 210.227 1264.78 209.32C1263.91 208.413 1262.67 207.96 1261.04 207.96H1258.78V218.14H1261.04Z" fill="white"/>
<path d="M1280.66 208.98V220H1278.38V218.7C1278.02 219.153 1277.55 219.513 1276.96 219.78C1276.39 220.033 1275.77 220.16 1275.12 220.16C1274.25 220.16 1273.47 219.98 1272.78 219.62C1272.1 219.26 1271.56 218.727 1271.16 218.02C1270.77 217.313 1270.58 216.46 1270.58 215.46V208.98H1272.84V215.12C1272.84 216.107 1273.09 216.867 1273.58 217.4C1274.07 217.92 1274.75 218.18 1275.6 218.18C1276.45 218.18 1277.13 217.92 1277.62 217.4C1278.13 216.867 1278.38 216.107 1278.38 215.12V208.98H1280.66Z" fill="white"/>
<path d="M1285.95 210.58C1286.28 210.02 1286.72 209.587 1287.27 209.28C1287.83 208.96 1288.49 208.8 1289.25 208.8V211.16H1288.67C1287.77 211.16 1287.09 211.387 1286.63 211.84C1286.17 212.293 1285.95 213.08 1285.95 214.2V220H1283.67V208.98H1285.95V210.58Z" fill="white"/>
<path d="M1290.58 214.44C1290.58 213.333 1290.81 212.353 1291.26 211.5C1291.73 210.647 1292.36 209.987 1293.14 209.52C1293.94 209.04 1294.82 208.8 1295.78 208.8C1296.65 208.8 1297.4 208.973 1298.04 209.32C1298.7 209.653 1299.22 210.073 1299.6 210.58V208.98H1301.9V220H1299.6V218.36C1299.22 218.88 1298.69 219.313 1298.02 219.66C1297.36 220.007 1296.6 220.18 1295.74 220.18C1294.8 220.18 1293.93 219.94 1293.14 219.46C1292.36 218.967 1291.73 218.287 1291.26 217.42C1290.81 216.54 1290.58 215.547 1290.58 214.44ZM1299.6 214.48C1299.6 213.72 1299.44 213.06 1299.12 212.5C1298.82 211.94 1298.41 211.513 1297.9 211.22C1297.4 210.927 1296.85 210.78 1296.26 210.78C1295.68 210.78 1295.13 210.927 1294.62 211.22C1294.12 211.5 1293.7 211.92 1293.38 212.48C1293.08 213.027 1292.92 213.68 1292.92 214.44C1292.92 215.2 1293.08 215.867 1293.38 216.44C1293.7 217.013 1294.12 217.453 1294.62 217.76C1295.14 218.053 1295.69 218.2 1296.26 218.2C1296.85 218.2 1297.4 218.053 1297.9 217.76C1298.41 217.467 1298.82 217.04 1299.12 216.48C1299.44 215.907 1299.6 215.24 1299.6 214.48Z" fill="white"/>
<path d="M1307.56 210.84V216.94C1307.56 217.353 1307.65 217.653 1307.84 217.84C1308.04 218.013 1308.37 218.1 1308.84 218.1H1310.24V220H1308.44C1307.41 220 1306.63 219.76 1306.08 219.28C1305.53 218.8 1305.26 218.02 1305.26 216.94V210.84H1303.96V208.98H1305.26V206.24H1307.56V208.98H1310.24V210.84H1307.56Z" fill="white"/>
<path d="M1313.5 207.52C1313.09 207.52 1312.74 207.38 1312.46 207.1C1312.18 206.82 1312.04 206.473 1312.04 206.06C1312.04 205.647 1312.18 205.3 1312.46 205.02C1312.74 204.74 1313.09 204.6 1313.5 204.6C1313.9 204.6 1314.24 204.74 1314.52 205.02C1314.8 205.3 1314.94 205.647 1314.94 206.06C1314.94 206.473 1314.8 206.82 1314.52 207.1C1314.24 207.38 1313.9 207.52 1313.5 207.52ZM1314.62 208.98V220H1312.34V208.98H1314.62Z" fill="white"/>
<path d="M1322.39 220.18C1321.35 220.18 1320.41 219.947 1319.57 219.48C1318.73 219 1318.07 218.333 1317.59 217.48C1317.11 216.613 1316.87 215.613 1316.87 214.48C1316.87 213.36 1317.12 212.367 1317.61 211.5C1318.11 210.633 1318.78 209.967 1319.63 209.5C1320.49 209.033 1321.44 208.8 1322.49 208.8C1323.55 208.8 1324.5 209.033 1325.35 209.5C1326.21 209.967 1326.88 210.633 1327.37 211.5C1327.87 212.367 1328.11 213.36 1328.11 214.48C1328.11 215.6 1327.86 216.593 1327.35 217.46C1326.85 218.327 1326.15 219 1325.27 219.48C1324.41 219.947 1323.45 220.18 1322.39 220.18ZM1322.39 218.2C1322.98 218.2 1323.53 218.06 1324.03 217.78C1324.55 217.5 1324.97 217.08 1325.29 216.52C1325.61 215.96 1325.77 215.28 1325.77 214.48C1325.77 213.68 1325.62 213.007 1325.31 212.46C1325.01 211.9 1324.6 211.48 1324.09 211.2C1323.59 210.92 1323.04 210.78 1322.45 210.78C1321.87 210.78 1321.32 210.92 1320.81 211.2C1320.32 211.48 1319.93 211.9 1319.63 212.46C1319.34 213.007 1319.19 213.68 1319.19 214.48C1319.19 215.667 1319.49 216.587 1320.09 217.24C1320.71 217.88 1321.47 218.2 1322.39 218.2Z" fill="white"/>
<path d="M1335.93 208.8C1336.79 208.8 1337.57 208.98 1338.25 209.34C1338.94 209.7 1339.48 210.233 1339.87 210.94C1340.25 211.647 1340.45 212.5 1340.45 213.5V220H1338.19V213.84C1338.19 212.853 1337.94 212.1 1337.45 211.58C1336.95 211.047 1336.28 210.78 1335.43 210.78C1334.57 210.78 1333.89 211.047 1333.39 211.58C1332.89 212.1 1332.65 212.853 1332.65 213.84V220H1330.37V208.98H1332.65V210.24C1333.02 209.787 1333.49 209.433 1334.07 209.18C1334.65 208.927 1335.27 208.8 1335.93 208.8Z" fill="white"/>
<path d="M1344.28 220.14C1343.86 220.14 1343.52 220 1343.24 219.72C1342.96 219.44 1342.82 219.093 1342.82 218.68C1342.82 218.267 1342.96 217.92 1343.24 217.64C1343.52 217.36 1343.86 217.22 1344.28 217.22C1344.68 217.22 1345.02 217.36 1345.3 217.64C1345.58 217.92 1345.72 218.267 1345.72 218.68C1345.72 219.093 1345.58 219.44 1345.3 219.72C1345.02 220 1344.68 220.14 1344.28 220.14ZM1344.28 211.74C1343.86 211.74 1343.52 211.6 1343.24 211.32C1342.96 211.04 1342.82 210.693 1342.82 210.28C1342.82 209.867 1342.96 209.52 1343.24 209.24C1343.52 208.96 1343.86 208.82 1344.28 208.82C1344.68 208.82 1345.02 208.96 1345.3 209.24C1345.58 209.52 1345.72 209.867 1345.72 210.28C1345.72 210.693 1345.58 211.04 1345.3 211.32C1345.02 211.6 1344.68 211.74 1344.28 211.74Z" fill="white"/>
<path d="M1360.99 208.8C1360.85 208.187 1360.58 207.727 1360.19 207.42C1359.81 207.113 1359.27 206.96 1358.57 206.96C1357.52 206.96 1356.73 207.367 1356.21 208.18C1355.69 208.98 1355.42 210.313 1355.39 212.18C1355.74 211.593 1356.25 211.14 1356.91 210.82C1357.58 210.5 1358.3 210.34 1359.07 210.34C1359.95 210.34 1360.73 210.533 1361.39 210.92C1362.07 211.293 1362.6 211.84 1362.97 212.56C1363.36 213.28 1363.55 214.14 1363.55 215.14C1363.55 216.073 1363.37 216.907 1362.99 217.64C1362.63 218.373 1362.09 218.953 1361.37 219.38C1360.65 219.793 1359.79 220 1358.77 220C1357.4 220 1356.32 219.7 1355.53 219.1C1354.76 218.487 1354.21 217.627 1353.89 216.52C1353.59 215.413 1353.43 214.033 1353.43 212.38C1353.43 207.5 1355.15 205.06 1358.59 205.06C1359.93 205.06 1360.97 205.42 1361.73 206.14C1362.51 206.86 1362.96 207.747 1363.09 208.8H1360.99ZM1358.57 212.26C1357.76 212.26 1357.07 212.507 1356.49 213C1355.93 213.48 1355.65 214.18 1355.65 215.1C1355.65 216.02 1355.91 216.753 1356.43 217.3C1356.97 217.833 1357.71 218.1 1358.65 218.1C1359.49 218.1 1360.15 217.84 1360.63 217.32C1361.13 216.8 1361.37 216.107 1361.37 215.24C1361.37 214.333 1361.13 213.613 1360.65 213.08C1360.19 212.533 1359.49 212.26 1358.57 212.26Z" fill="white"/>
<path d="M1384.82 208.8C1385.69 208.8 1386.46 208.98 1387.14 209.34C1387.83 209.7 1388.37 210.233 1388.76 210.94C1389.16 211.647 1389.36 212.5 1389.36 213.5V220H1387.1V213.84C1387.1 212.853 1386.85 212.1 1386.36 211.58C1385.87 211.047 1385.19 210.78 1384.34 210.78C1383.49 210.78 1382.81 211.047 1382.3 211.58C1381.81 212.1 1381.56 212.853 1381.56 213.84V220H1379.3V213.84C1379.3 212.853 1379.05 212.1 1378.56 211.58C1378.07 211.047 1377.39 210.78 1376.54 210.78C1375.69 210.78 1375.01 211.047 1374.5 211.58C1374.01 212.1 1373.76 212.853 1373.76 213.84V220H1371.48V208.98H1373.76V210.24C1374.13 209.787 1374.61 209.433 1375.18 209.18C1375.75 208.927 1376.37 208.8 1377.02 208.8C1377.9 208.8 1378.69 208.987 1379.38 209.36C1380.07 209.733 1380.61 210.273 1380.98 210.98C1381.31 210.313 1381.83 209.787 1382.54 209.4C1383.25 209 1384.01 208.8 1384.82 208.8Z" fill="white"/>
<path d="M1397.04 220.18C1396 220.18 1395.06 219.947 1394.22 219.48C1393.38 219 1392.72 218.333 1392.24 217.48C1391.76 216.613 1391.52 215.613 1391.52 214.48C1391.52 213.36 1391.77 212.367 1392.26 211.5C1392.76 210.633 1393.43 209.967 1394.28 209.5C1395.14 209.033 1396.09 208.8 1397.14 208.8C1398.2 208.8 1399.15 209.033 1400 209.5C1400.86 209.967 1401.53 210.633 1402.02 211.5C1402.52 212.367 1402.76 213.36 1402.76 214.48C1402.76 215.6 1402.51 216.593 1402 217.46C1401.49 218.327 1400.8 219 1399.92 219.48C1399.06 219.947 1398.1 220.18 1397.04 220.18ZM1397.04 218.2C1397.63 218.2 1398.18 218.06 1398.68 217.78C1399.2 217.5 1399.62 217.08 1399.94 216.52C1400.26 215.96 1400.42 215.28 1400.42 214.48C1400.42 213.68 1400.27 213.007 1399.96 212.46C1399.66 211.9 1399.25 211.48 1398.74 211.2C1398.23 210.92 1397.69 210.78 1397.1 210.78C1396.52 210.78 1395.97 210.92 1395.46 211.2C1394.97 211.48 1394.58 211.9 1394.28 212.46C1393.99 213.007 1393.84 213.68 1393.84 214.48C1393.84 215.667 1394.14 216.587 1394.74 217.24C1395.35 217.88 1396.12 218.2 1397.04 218.2Z" fill="white"/>
<path d="M1410.58 208.8C1411.44 208.8 1412.22 208.98 1412.9 209.34C1413.59 209.7 1414.13 210.233 1414.52 210.94C1414.9 211.647 1415.1 212.5 1415.1 213.5V220H1412.84V213.84C1412.84 212.853 1412.59 212.1 1412.1 211.58C1411.6 211.047 1410.93 210.78 1410.08 210.78C1409.22 210.78 1408.54 211.047 1408.04 211.58C1407.54 212.1 1407.3 212.853 1407.3 213.84V220H1405.02V208.98H1407.3V210.24C1407.67 209.787 1408.14 209.433 1408.72 209.18C1409.3 208.927 1409.92 208.8 1410.58 208.8Z" fill="white"/>
<path d="M1420.66 210.84V216.94C1420.66 217.353 1420.76 217.653 1420.94 217.84C1421.14 218.013 1421.48 218.1 1421.94 218.1H1423.34V220H1421.54C1420.52 220 1419.73 219.76 1419.18 219.28C1418.64 218.8 1418.36 218.02 1418.36 216.94V210.84H1417.06V208.98H1418.36V206.24H1420.66V208.98H1423.34V210.84H1420.66Z" fill="white"/>
<path d="M1431.15 208.8C1431.99 208.8 1432.73 208.98 1433.39 209.34C1434.05 209.7 1434.57 210.233 1434.95 210.94C1435.33 211.647 1435.53 212.5 1435.53 213.5V220H1433.27V213.84C1433.27 212.853 1433.02 212.1 1432.53 211.58C1432.03 211.047 1431.36 210.78 1430.51 210.78C1429.65 210.78 1428.97 211.047 1428.47 211.58C1427.97 212.1 1427.73 212.853 1427.73 213.84V220H1425.45V205.2H1427.73V210.26C1428.11 209.793 1428.6 209.433 1429.19 209.18C1429.79 208.927 1430.44 208.8 1431.15 208.8Z" fill="white"/>
<path d="M1442.43 220.18C1441.57 220.18 1440.79 220.027 1440.09 219.72C1439.41 219.4 1438.87 218.973 1438.47 218.44C1438.07 217.893 1437.86 217.287 1437.83 216.62H1440.19C1440.23 217.087 1440.45 217.48 1440.85 217.8C1441.27 218.107 1441.78 218.26 1442.39 218.26C1443.03 218.26 1443.53 218.14 1443.87 217.9C1444.23 217.647 1444.41 217.327 1444.41 216.94C1444.41 216.527 1444.21 216.22 1443.81 216.02C1443.43 215.82 1442.81 215.6 1441.95 215.36C1441.13 215.133 1440.45 214.913 1439.93 214.7C1439.41 214.487 1438.96 214.16 1438.57 213.72C1438.2 213.28 1438.01 212.7 1438.01 211.98C1438.01 211.393 1438.19 210.86 1438.53 210.38C1438.88 209.887 1439.37 209.5 1440.01 209.22C1440.67 208.94 1441.41 208.8 1442.25 208.8C1443.51 208.8 1444.51 209.12 1445.27 209.76C1446.05 210.387 1446.46 211.247 1446.51 212.34H1444.23C1444.19 211.847 1443.99 211.453 1443.63 211.16C1443.27 210.867 1442.79 210.72 1442.17 210.72C1441.57 210.72 1441.11 210.833 1440.79 211.06C1440.47 211.287 1440.31 211.587 1440.31 211.96C1440.31 212.253 1440.42 212.5 1440.63 212.7C1440.85 212.9 1441.11 213.06 1441.41 213.18C1441.72 213.287 1442.17 213.427 1442.77 213.6C1443.57 213.813 1444.23 214.033 1444.73 214.26C1445.25 214.473 1445.7 214.793 1446.07 215.22C1446.45 215.647 1446.64 216.213 1446.65 216.92C1446.65 217.547 1446.48 218.107 1446.13 218.6C1445.79 219.093 1445.29 219.48 1444.65 219.76C1444.03 220.04 1443.29 220.18 1442.43 220.18Z" fill="white"/>
<path d="M1345.22 240.24C1345.22 240.947 1345.05 241.613 1344.72 242.24C1344.39 242.867 1343.85 243.38 1343.12 243.78C1342.39 244.167 1341.45 244.36 1340.3 244.36H1337.78V250H1335.5V236.1H1340.3C1341.37 236.1 1342.27 236.287 1343 236.66C1343.75 237.02 1344.3 237.513 1344.66 238.14C1345.03 238.767 1345.22 239.467 1345.22 240.24ZM1340.3 242.5C1341.17 242.5 1341.81 242.307 1342.24 241.92C1342.67 241.52 1342.88 240.96 1342.88 240.24C1342.88 238.72 1342.02 237.96 1340.3 237.96H1337.78V242.5H1340.3Z" fill="white"/>
<path d="M1349.67 240.58C1350.01 240.02 1350.45 239.587 1350.99 239.28C1351.55 238.96 1352.21 238.8 1352.97 238.8V241.16H1352.39C1351.5 241.16 1350.82 241.387 1350.35 241.84C1349.9 242.293 1349.67 243.08 1349.67 244.2V250H1347.39V238.98H1349.67V240.58Z" fill="white"/>
<path d="M1356.23 237.52C1355.82 237.52 1355.47 237.38 1355.19 237.1C1354.91 236.82 1354.77 236.473 1354.77 236.06C1354.77 235.647 1354.91 235.3 1355.19 235.02C1355.47 234.74 1355.82 234.6 1356.23 234.6C1356.63 234.6 1356.97 234.74 1357.25 235.02C1357.53 235.3 1357.67 235.647 1357.67 236.06C1357.67 236.473 1357.53 236.82 1357.25 237.1C1356.97 237.38 1356.63 237.52 1356.23 237.52ZM1357.35 238.98V250H1355.07V238.98H1357.35Z" fill="white"/>
<path d="M1359.58 244.48C1359.58 243.347 1359.81 242.353 1360.26 241.5C1360.73 240.633 1361.37 239.967 1362.18 239.5C1363 239.033 1363.93 238.8 1364.98 238.8C1366.32 238.8 1367.42 239.12 1368.28 239.76C1369.16 240.387 1369.76 241.287 1370.06 242.46H1367.6C1367.4 241.913 1367.08 241.487 1366.64 241.18C1366.2 240.873 1365.65 240.72 1364.98 240.72C1364.05 240.72 1363.3 241.053 1362.74 241.72C1362.2 242.373 1361.92 243.293 1361.92 244.48C1361.92 245.667 1362.2 246.593 1362.74 247.26C1363.3 247.927 1364.05 248.26 1364.98 248.26C1366.3 248.26 1367.18 247.68 1367.6 246.52H1370.06C1369.74 247.64 1369.14 248.533 1368.26 249.2C1367.38 249.853 1366.29 250.18 1364.98 250.18C1363.93 250.18 1363 249.947 1362.18 249.48C1361.37 249 1360.73 248.333 1360.26 247.48C1359.81 246.613 1359.58 245.613 1359.58 244.48Z" fill="white"/>
<path d="M1382.44 244.22C1382.44 244.633 1382.41 245.007 1382.36 245.34H1373.94C1374 246.22 1374.33 246.927 1374.92 247.46C1375.5 247.993 1376.22 248.26 1377.08 248.26C1378.3 248.26 1379.17 247.747 1379.68 246.72H1382.14C1381.8 247.733 1381.2 248.567 1380.32 249.22C1379.45 249.86 1378.37 250.18 1377.08 250.18C1376.02 250.18 1375.08 249.947 1374.24 249.48C1373.41 249 1372.76 248.333 1372.28 247.48C1371.81 246.613 1371.58 245.613 1371.58 244.48C1371.58 243.347 1371.8 242.353 1372.26 241.5C1372.72 240.633 1373.37 239.967 1374.2 239.5C1375.04 239.033 1376 238.8 1377.08 238.8C1378.12 238.8 1379.04 239.027 1379.86 239.48C1380.67 239.933 1381.3 240.573 1381.76 241.4C1382.21 242.213 1382.44 243.153 1382.44 244.22ZM1380.06 243.5C1380.04 242.66 1379.74 241.987 1379.16 241.48C1378.57 240.973 1377.84 240.72 1376.98 240.72C1376.19 240.72 1375.52 240.973 1374.96 241.48C1374.4 241.973 1374.06 242.647 1373.96 243.5H1380.06Z" fill="white"/>
<path d="M1385.6 250.14C1385.19 250.14 1384.84 250 1384.56 249.72C1384.28 249.44 1384.14 249.093 1384.14 248.68C1384.14 248.267 1384.28 247.92 1384.56 247.64C1384.84 247.36 1385.19 247.22 1385.6 247.22C1386 247.22 1386.34 247.36 1386.62 247.64C1386.9 247.92 1387.04 248.267 1387.04 248.68C1387.04 249.093 1386.9 249.44 1386.62 249.72C1386.34 250 1386 250.14 1385.6 250.14ZM1385.6 241.74C1385.19 241.74 1384.84 241.6 1384.56 241.32C1384.28 241.04 1384.14 240.693 1384.14 240.28C1384.14 239.867 1384.28 239.52 1384.56 239.24C1384.84 238.96 1385.19 238.82 1385.6 238.82C1386 238.82 1386.34 238.96 1386.62 239.24C1386.9 239.52 1387.04 239.867 1387.04 240.28C1387.04 240.693 1386.9 241.04 1386.62 241.32C1386.34 241.6 1386 241.74 1385.6 241.74Z" fill="white"/>
<path d="M1404.16 246.04C1404.16 246.707 1403.99 247.333 1403.66 247.92C1403.34 248.507 1402.86 249 1402.22 249.4C1401.59 249.8 1400.84 250.04 1399.98 250.12V251.74H1398.68V250.12C1397.42 250 1396.41 249.607 1395.64 248.94C1394.86 248.273 1394.48 247.393 1394.48 246.3H1396.92C1396.96 246.82 1397.12 247.253 1397.42 247.6C1397.71 247.933 1398.13 248.147 1398.68 248.24V243.84C1397.78 243.613 1397.06 243.387 1396.5 243.16C1395.94 242.92 1395.46 242.547 1395.06 242.04C1394.67 241.533 1394.48 240.84 1394.48 239.96C1394.48 238.853 1394.86 237.94 1395.64 237.22C1396.41 236.487 1397.42 236.06 1398.68 235.94V234.32H1399.98V235.94C1401.15 236.047 1402.09 236.42 1402.8 237.06C1403.52 237.687 1403.92 238.553 1404.02 239.66H1401.58C1401.54 239.247 1401.38 238.88 1401.1 238.56C1400.82 238.227 1400.44 238 1399.98 237.88V242.2C1400.87 242.413 1401.6 242.64 1402.16 242.88C1402.72 243.107 1403.19 243.473 1403.58 243.98C1403.96 244.473 1404.16 245.16 1404.16 246.04ZM1396.8 239.84C1396.8 240.387 1396.96 240.813 1397.28 241.12C1397.61 241.427 1398.08 241.673 1398.68 241.86V237.82C1398.1 237.887 1397.64 238.093 1397.3 238.44C1396.96 238.787 1396.8 239.253 1396.8 239.84ZM1399.98 248.24C1400.56 248.147 1401.02 247.913 1401.36 247.54C1401.69 247.153 1401.86 246.693 1401.86 246.16C1401.86 245.627 1401.69 245.213 1401.36 244.92C1401.04 244.613 1400.58 244.367 1399.98 244.18V248.24Z" fill="white"/>
<path d="M1408.75 246.9C1410.03 245.793 1411.03 244.887 1411.77 244.18C1412.51 243.46 1413.13 242.713 1413.63 241.94C1414.12 241.167 1414.37 240.393 1414.37 239.62C1414.37 238.82 1414.17 238.193 1413.79 237.74C1413.41 237.287 1412.82 237.06 1412.01 237.06C1411.22 237.06 1410.61 237.313 1410.17 237.82C1409.74 238.313 1409.51 238.98 1409.49 239.82H1407.29C1407.33 238.3 1407.78 237.14 1408.65 236.34C1409.53 235.527 1410.64 235.12 1411.99 235.12C1413.44 235.12 1414.57 235.52 1415.39 236.32C1416.21 237.12 1416.63 238.187 1416.63 239.52C1416.63 240.48 1416.38 241.407 1415.89 242.3C1415.41 243.18 1414.83 243.973 1414.15 244.68C1413.48 245.373 1412.63 246.18 1411.59 247.1L1410.69 247.9H1417.03V249.8H1407.31V248.14L1408.75 246.9Z" fill="white"/>
<path d="M1428.43 237.38H1421.73V241.36C1422.01 240.987 1422.42 240.673 1422.97 240.42C1423.53 240.167 1424.12 240.04 1424.75 240.04C1425.87 240.04 1426.77 240.28 1427.47 240.76C1428.17 241.24 1428.67 241.847 1428.97 242.58C1429.27 243.313 1429.43 244.087 1429.43 244.9C1429.43 245.887 1429.23 246.767 1428.85 247.54C1428.47 248.3 1427.91 248.9 1427.15 249.34C1426.4 249.78 1425.48 250 1424.39 250C1422.93 250 1421.77 249.64 1420.89 248.92C1420.01 248.2 1419.48 247.247 1419.31 246.06H1421.53C1421.67 246.687 1422 247.187 1422.51 247.56C1423.01 247.92 1423.65 248.1 1424.41 248.1C1425.35 248.1 1426.06 247.813 1426.53 247.24C1427.01 246.667 1427.25 245.907 1427.25 244.96C1427.25 244 1427.01 243.267 1426.53 242.76C1426.05 242.24 1425.34 241.98 1424.41 241.98C1423.75 241.98 1423.2 242.147 1422.75 242.48C1422.31 242.8 1421.99 243.24 1421.79 243.8H1419.63V235.38H1428.43V237.38Z" fill="white"/>
<path d="M1431.8 242.52C1431.8 240.213 1432.19 238.413 1432.96 237.12C1433.75 235.813 1435.09 235.16 1437 235.16C1438.91 235.16 1440.25 235.813 1441.02 237.12C1441.81 238.413 1442.2 240.213 1442.2 242.52C1442.2 244.853 1441.81 246.68 1441.02 248C1440.25 249.307 1438.91 249.96 1437 249.96C1435.09 249.96 1433.75 249.307 1432.96 248C1432.19 246.68 1431.8 244.853 1431.8 242.52ZM1439.96 242.52C1439.96 241.44 1439.89 240.527 1439.74 239.78C1439.61 239.033 1439.33 238.427 1438.9 237.96C1438.47 237.48 1437.84 237.24 1437 237.24C1436.16 237.24 1435.53 237.48 1435.1 237.96C1434.67 238.427 1434.39 239.033 1434.24 239.78C1434.11 240.527 1434.04 241.44 1434.04 242.52C1434.04 243.64 1434.11 244.58 1434.24 245.34C1434.37 246.1 1434.65 246.713 1435.08 247.18C1435.52 247.647 1436.16 247.88 1437 247.88C1437.84 247.88 1438.47 247.647 1438.9 247.18C1439.34 246.713 1439.63 246.1 1439.76 245.34C1439.89 244.58 1439.96 243.64 1439.96 242.52Z" fill="white"/>
</svg>
